REM DIRINDEX 1\3,1\4,1\5,1\6,1\2\7,1\2\8,1\2\9,1\10
REM DIRNAME folder01,folder02,folder03,folder04,folder05,folder06,folder07,folder08,folder09,folder10
TITLE ""
FILE "2-51 Level 6-969-980.mp3" MP3
  TRACK 01 AUDIO
    TITLE "0:"
    INDEX 01 00:00:00
  TRACK 02 AUDIO
    TITLE "7:cjc056_3319"
    INDEX 01 00:00:07
  TRACK 03 AUDIO
    TITLE "0:"
    INDEX 01 00:01:13
  TRACK 04 AUDIO
    TITLE "8:cjc056_3320"
    INDEX 01 00:01:24
  TRACK 05 AUDIO
    TITLE "0:"
    INDEX 01 00:02:38
  TRACK 06 AUDIO
    TITLE "9:cjc056_3321"
    INDEX 01 00:02:51
  TRACK 07 AUDIO
    TITLE "0:"
    INDEX 01 00:05:18
  TRACK 08 AUDIO
    TITLE "7:cjc056_3322"
    INDEX 01 00:05:65
  TRACK 09 AUDIO
    TITLE "0:"
    INDEX 01 00:06:71
  TRACK 10 AUDIO
    TITLE "8:cjc056_3323"
    INDEX 01 00:07:11
  TRACK 11 AUDIO
    TITLE "0:"
    INDEX 01 00:08:54
  TRACK 12 AUDIO
    TITLE "9:cjc056_3324"
    INDEX 01 00:08:68
  TRACK 13 AUDIO
    TITLE "0:"
    INDEX 01 00:12:11
  TRACK 14 AUDIO
    TITLE "7:cjc056_3325"
    INDEX 01 00:12:61
  TRACK 15 AUDIO
    TITLE "0:"
    INDEX 01 00:13:63
  TRACK 16 AUDIO
    TITLE "8:cjc056_3326"
    INDEX 01 00:14:06
  TRACK 17 AUDIO
    TITLE "0:"
    INDEX 01 00:15:38
  TRACK 18 AUDIO
    TITLE "9:cjc056_3327"
    INDEX 01 00:15:54
  TRACK 19 AUDIO
    TITLE "0:"
    INDEX 01 00:18:13
  TRACK 20 AUDIO
    TITLE "7:cjc056_3328"
    INDEX 01 00:18:64
  TRACK 21 AUDIO
    TITLE "0:"
    INDEX 01 00:19:71
  TRACK 22 AUDIO
    TITLE "8:cjc056_3329"
    INDEX 01 00:20:10
  TRACK 23 AUDIO
    TITLE "0:"
    INDEX 01 00:21:66
  TRACK 24 AUDIO
    TITLE "9:cjc056_3330"
    INDEX 01 00:22:01
  TRACK 25 AUDIO
    TITLE "0:"
    INDEX 01 00:25:27
  TRACK 26 AUDIO
    TITLE "7:cjc056_3331"
    INDEX 01 00:25:74
  TRACK 27 AUDIO
    TITLE "0:"
    INDEX 01 00:27:08
  TRACK 28 AUDIO
    TITLE "8:cjc056_3332"
    INDEX 01 00:27:20
  TRACK 29 AUDIO
    TITLE "0:"
    INDEX 01 00:28:13
  TRACK 30 AUDIO
    TITLE "9:cjc056_3333"
    INDEX 01 00:28:23
  TRACK 31 AUDIO
    TITLE "0:"
    INDEX 01 00:31:55
  TRACK 32 AUDIO
    TITLE "7:cjc056_3334"
    INDEX 01 00:32:31
  TRACK 33 AUDIO
    TITLE "0:"
    INDEX 01 00:33:36
  TRACK 34 AUDIO
    TITLE "8:cjc056_3335"
    INDEX 01 00:33:50
  TRACK 35 AUDIO
    TITLE "0:"
    INDEX 01 00:35:00
  TRACK 36 AUDIO
    TITLE "9:cjc056_3336"
    INDEX 01 00:35:14
  TRACK 37 AUDIO
    TITLE "0:"
    INDEX 01 00:37:32
  TRACK 38 AUDIO
    TITLE "7:cjc056_3337"
    INDEX 01 00:38:08
  TRACK 39 AUDIO
    TITLE "0:"
    INDEX 01 00:39:11
  TRACK 40 AUDIO
    TITLE "8:cjc056_3338"
    INDEX 01 00:39:23
  TRACK 41 AUDIO
    TITLE "0:"
    INDEX 01 00:40:56
  TRACK 42 AUDIO
    TITLE "9:cjc056_3339"
    INDEX 01 00:40:68
  TRACK 43 AUDIO
    TITLE "0:"
    INDEX 01 00:43:19
  TRACK 44 AUDIO
    TITLE "7:cjc056_3340"
    INDEX 01 00:43:70
  TRACK 45 AUDIO
    TITLE "0:"
    INDEX 01 00:45:18
  TRACK 46 AUDIO
    TITLE "8:cjc056_3341"
    INDEX 01 00:45:32
  TRACK 47 AUDIO
    TITLE "0:"
    INDEX 01 00:46:33
  TRACK 48 AUDIO
    TITLE "9:cjc056_3342"
    INDEX 01 00:46:49
  TRACK 49 AUDIO
    TITLE "0:"
    INDEX 01 00:49:63
  TRACK 50 AUDIO
    TITLE "7:cjc056_3343"
    INDEX 01 00:50:39
  TRACK 51 AUDIO
    TITLE "0:"
    INDEX 01 00:51:50
  TRACK 52 AUDIO
    TITLE "8:cjc056_3344"
    INDEX 01 00:51:60
  TRACK 53 AUDIO
    TITLE "0:"
    INDEX 01 00:52:65
  TRACK 54 AUDIO
    TITLE "9:cjc056_3345"
    INDEX 01 00:53:04
  TRACK 55 AUDIO
    TITLE "0:"
    INDEX 01 00:56:12
  TRACK 56 AUDIO
    TITLE "7:cjc056_3346"
    INDEX 01 00:56:59
  TRACK 57 AUDIO
    TITLE "0:"
    INDEX 01 00:57:70
  TRACK 58 AUDIO
    TITLE "8:cjc056_3347"
    INDEX 01 00:58:09
  TRACK 59 AUDIO
    TITLE "0:"
    INDEX 01 00:59:20
  TRACK 60 AUDIO
    TITLE "9:cjc056_3348"
    INDEX 01 00:59:34
  TRACK 61 AUDIO
    TITLE "0:"
    INDEX 01 01:01:66
  TRACK 62 AUDIO
    TITLE "7:cjc056_3349"
    INDEX 01 01:02:40
  TRACK 63 AUDIO
    TITLE "0:"
    INDEX 01 01:03:55
  TRACK 64 AUDIO
    TITLE "8:cjc056_3350"
    INDEX 01 01:03:69
  TRACK 65 AUDIO
    TITLE "0:"
    INDEX 01 01:05:09
  TRACK 66 AUDIO
    TITLE "9:cjc056_3351"
    INDEX 01 01:05:21
  TRACK 67 AUDIO
    TITLE "0:"
    INDEX 01 01:08:38
  TRACK 68 AUDIO
    TITLE "7:cjc056_3352"
    INDEX 01 01:09:10
  TRACK 69 AUDIO
    TITLE "0:"
    INDEX 01 01:10:10
  TRACK 70 AUDIO
    TITLE "8:cjc056_3353"
    INDEX 01 01:10:22
  TRACK 71 AUDIO
    TITLE "0:"
    INDEX 01 01:11:33
  TRACK 72 AUDIO
    TITLE "9:cjc056_3354"
    INDEX 01 01:11:45
  TRACK 73 AUDIO
    TITLE "0:"
    INDEX 01 01:14:02
